<svg xmlns="http://www.w3.org/2000/svg" width="512" height="512" data-name="Layer 1" fill="#F1F1F1">
  <defs/>
  <path d="M196.258 155.227a6 6 0 00-6 6 3.774 3.774 0 01-7.547 0 6 6 0 10-12 0 15.774 15.774 0 0031.547 0 6 6 0 00-6-6zM251.508 176.92a15.751 15.751 0 0015.773-15.693 6 6 0 00-12 0 3.774 3.774 0 01-7.546 0 6 6 0 10-12 0 15.751 15.751 0 0015.773 15.693z"/>
  <path d="M456.922 177.074A11.856 11.856 0 01445 165.354v-58.773C445 71.509 416.369 43 381.037 43h-80.1a78.37 78.37 0 00-55.495-23h-49.1A78.451 78.451 0 00118 98.471V137H77.562a28.182 28.182 0 00-20.057 8.109A27.758 27.758 0 0049.173 165l.027 108.581A73.9 73.9 0 005 341.008V486a6 6 0 006 6h419.785a6.187 6.187 0 006.215-6V341.008C437 313.245 421.249 289 398.348 276h58.631c27.582 0 49.992-22.079 49.992-49.463s-22.471-49.463-50.049-49.463zm5.9 12.444a37.976 37.976 0 0111.65 3.794l-15.889 14.062a19.674 19.674 0 00-1.6-.081 42.887 42.887 0 01-6.512-.5zm-13.53-1.718l-10.885 15.227a42.486 42.486 0 01-10.53-7.264l15.541-10.91a23.868 23.868 0 005.874 2.947zm-13.766-12.068l-15.154 10.638a41.364 41.364 0 01-5.305-15.177l18.393-1.846a23.434 23.434 0 002.066 6.389zM433 150v7.325l-18 1.854V150zm-18-12v-7h18v7zm18-19h-18v-6h18zm-.249-18h-18.658a21.128 21.128 0 00-1.058-4.414l18.711-1.4a50.292 50.292 0 011.005 5.814zm-5.322-17.819l-20.9 1.678 15.131-10.514a51.656 51.656 0 015.769 8.836zm-20.045-21.087a52.439 52.439 0 015.524 3.718l-11.527 8.01zM382 55.006a52.654 52.654 0 0114.243 2.257l-8.576 16.626a33.43 33.43 0 00-5.667-.663zM360 55h10v18h-10zm-21 0h9v18h-9zm-12 0v18h-7.276a78.246 78.246 0 00-8.932-18zm14.875 131a5.788 5.788 0 00-5.875 5.874v49.59c0 3.313 2.562 5.536 5.875 5.536h27.5l.035 20.18-41.81-.18c.073-1 .4-1.71.4-2.644v-10.939a35.238 35.238 0 00-18.395-30.646A101.756 101.756 0 00324 170.482V149h28.842a16.257 16.257 0 0116.389 16.1l.037 20.9zm27.414 12l.065 37H348v-37zm-128.93-94.688A26.6 26.6 0 01274 116.562a43.709 43.709 0 014 18.727v21.441a6.5 6.5 0 006.3 6.27h3.22a6 6 0 110 12h-3.22a5.863 5.863 0 00-5.865 4.576l-5.1 23.51a53.38 53.38 0 01-7.588 18.073 91.623 91.623 0 01-92.974-2.056 53.7 53.7 0 01-6.327-16.1l-5.1-23.431a5.863 5.863 0 00-5.862-4.572h-3.22a6 6 0 110-12h3.22c3.314 0 5.516-2.956 5.516-6.27v-24.575a34.679 34.679 0 013.735-15.072l-.154 3.964a6.082 6.082 0 007.52 6.24c5.721-1.418 17.318-7.007 32.213-28.308a38.995 38.995 0 0036.045 4.333zM214.334 91h25.024a38.455 38.455 0 00-3.335 1.1 26.916 26.916 0 01-21.689-1.1zm70.535 20.476A38.124 38.124 0 00260.523 91h18.838a33.586 33.586 0 019.243 1.3 38.173 38.173 0 012.672 8.844A96.706 96.706 0 01290 138.767v-3.478a55.624 55.624 0 00-5.131-23.813zm13.519 42.9a115.951 115.951 0 005.193-52.93A31.194 31.194 0 01312 122.8v19.935A89.381 89.381 0 01284.714 207c.116-.484.245-.963.351-1.45l4.091-18.93a17.933 17.933 0 009.232-32.242zm-120.971-43.255l.791-11.356a6 6 0 00-3.08-5.666 6.423 6.423 0 00-6.68.4A47 47 0 00149 132.155v12.16a92.949 92.949 0 01-4.845-28.952 83.781 83.781 0 012.6-20.452A33 33 0 01162.425 91h32.823c-6.693 9.742-12.833 16.224-17.831 20.121zm-26.79 75.492l3.77 17.445a90.352 90.352 0 01-16.334-24.253 18.085 18.085 0 0012.564 6.808zm70.266 58.213a103.27 103.27 0 0086.9-47.332A90.7 90.7 0 01221.358 261h-.931a90.7 90.7 0 01-86.433-63.507 103.268 103.268 0 0086.899 47.333zm-81.8-12.071A102.241 102.241 0 00220.427 273h.931a102.594 102.594 0 0081.471-40.249A23.181 23.181 0 01316 253.417v10.939C316 277 305.279 287 292.445 287H149.412C136.539 287 126 277 126 264.356v-10.939a23.142 23.142 0 0113.094-20.662zM196.344 32h49.1c34.6 0 63.09 26.763 66.179 60.567A44.431 44.431 0 00279.361 79H162.425a44.433 44.433 0 00-32.261 13.567C133.253 58.763 161.747 32 196.344 32zM130 122.8a31.467 31.467 0 012.5-12.352 100.44 100.44 0 00-.134 4.915 94.789 94.789 0 008.444 39.435 17.9 17.9 0 00-6.623 13.91c0 .42.031.832.059 1.245A88.98 88.98 0 01130 142.735zm-64.047 30.862A16.288 16.288 0 0177.562 149H118v21.482a102.033 102.033 0 0014.325 52.268A35.192 35.192 0 00114 253.417v10.939c0 .934.115 1.644.188 2.644H79.536a75.007 75.007 0 00-18.336 2.1V247h29.254A5.247 5.247 0 0096 241.464v-49.59c0-3.314-2.232-5.874-5.546-5.874H61.179l-.006-21a15.764 15.764 0 014.78-11.338zM61.192 235l-.01-37H84v37zM17.045 339.267h19.136a7.777 7.777 0 017.819 7.79v33.857a7.778 7.778 0 01-7.81 7.788l-19.19.025zM101 480H17v-49.76l84-.045zm75 0v-51h90.777l.039 51zm120.156 0h-17.34l-.044-56.976a6.024 6.024 0 00-6-6.024H169.946a6.066 6.066 0 00-6 6.057V480H146.57l-.011-119.721a15.084 15.084 0 014.494-10.77A15.45 15.45 0 01161.976 345h118.768a15.45 15.45 0 0110.923 4.508 15.05 15.05 0 014.5 10.754zM425 480h-85v-49.76l85-.045zm0-91.273l-21.809-.026a8.113 8.113 0 01-8.191-7.788v-33.856a8.016 8.016 0 018.092-7.788h21.67zm-1.788-61.527l-20.122.034A20.053 20.053 0 00383 347.057v33.856c0 10.9 9.2 19.775 20.176 19.788l21.824.026V418.2l-85 .045v-41.176a6 6 0 10-12 0V480h-19.844l.006-119.722a27 27 0 00-8.05-19.3A27.376 27.376 0 00280.744 333H161.976a27.377 27.377 0 00-19.368 7.983 26.97 26.97 0 00-8.049 19.281L134.57 480H113V377.069a6 6 0 00-12 0V418.2l-84 .045v-17.518l19.206-.025A19.8 19.8 0 0056 380.914v-33.857a19.791 19.791 0 00-19.817-19.788l-17.66-.066A62.6 62.6 0 0179.536 279h37.858a35.1 35.1 0 0032.018 20h143.033a35.02 35.02 0 0031.955-20h37.851a62.547 62.547 0 0160.961 48.2zM381.373 246H388v18h-6.6zM407 264h-7v-18h7zm19 0h-7v-18h7zm19 0h-7v-18h7zm-63.648-30l-.121-69.069A28.144 28.144 0 00352.842 137H324V98.471A78.4 78.4 0 00322.816 85h58.221C392.953 85 403 94.789 403 106.581v58.773a54.047 54.047 0 0054.155 53.939 7.356 7.356 0 017.466 7.353 7.509 7.509 0 01-7.642 7.354zM457 264.394v-18.226a16.075 16.075 0 004.015-.438l8.264 16.577A35.271 35.271 0 01457 264.394zm27.327-63.782a37.836 37.836 0 016.591 9.18l-18.851 4.59a19.624 19.624 0 00-1.5-1.595zm-4.286 56.04l-8.517-16.966a19.35 19.35 0 001.6-2l15.772 9.478a38.082 38.082 0 01-8.855 9.488zM476.48 225.7v-.037l18.114-4.41a37.319 37.319 0 01-.784 14.86z"/>
  <path d="M273 364H170a6 6 0 00-6 6v30a6 6 0 006 6h103a6 6 0 006-6v-30a6 6 0 00-6-6zm-6 30h-91v-18h91z"/>
</svg>
