<svg xmlns="http://www.w3.org/2000/svg" width="512" height="512" data-name="Layer 1" fill="#F1F1F1">
  <defs/>
  <path d="M320.881 447.034a140.685 140.685 0 01-39.722 5.62 6 6 0 000 12 152.636 152.636 0 0043.109-6.109 6 6 0 00-3.387-11.511zM122.441 137.151a6 6 0 008.3-1.746 88.176 88.176 0 0112.815-15.361 6 6 0 00-8.309-8.657 100.124 100.124 0 00-14.547 17.461 6 6 0 001.741 8.303zM158.4 107.168a5.97 5.97 0 003.123-.881 123.22 123.22 0 0126.967-12.2 140.117 140.117 0 0145.843-6.387h.147a6 6 0 00.142-12 151.936 151.936 0 00-49.764 6.949 135.178 135.178 0 00-29.594 13.4 6 6 0 003.133 11.121zM22 289.915a6 6 0 00-12 0 81.83 81.83 0 0012.2 42.8 6 6 0 0010.272-6.2A69.99 69.99 0 0122 289.915zM71.512 361.851a108.256 108.256 0 01-23.4-16.343 6 6 0 10-8.147 8.81 120.262 120.262 0 0025.986 18.168 6 6 0 005.561-10.635zM105.425 373.783a6 6 0 00-2.406 11.757 155.246 155.246 0 0031.053 3.111 6 6 0 000-12 143.169 143.169 0 01-28.647-2.868zM428.3 172.923a118.861 118.861 0 0122.476 11.609 6 6 0 106.637-10 130.908 130.908 0 00-24.746-12.79 6 6 0 00-4.367 11.178zM481.182 205.04a6 6 0 00-1.972 8.253 69.614 69.614 0 0110.738 39.723 6 6 0 005.761 6.231h.238a6 6 0 005.991-5.765 82.518 82.518 0 00-12.5-46.475 6 6 0 00-8.256-1.967zM125.888 424.241a112.167 112.167 0 01-18.1-11.542 6 6 0 10-7.412 9.436 123.993 123.993 0 0020.036 12.785 6 6 0 005.473-10.679zM187.244 438.578c-4.353-.01-8.75-.218-13.065-.619a142.043 142.043 0 01-15.976-2.406 6 6 0 00-2.465 11.744 154.309 154.309 0 0017.329 2.821c4.675.435 9.436.882 14.15.882h.013a6.215 6.215 0 00.014-12.422zM214.148 143.1c-16.949 26.149-18.429 56.706-4.063 83.834.008.014.018.026.025.04a5.934 5.934 0 00.365.595c.008.013.02.024.028.037.068.095.144.18.216.27.093.115.185.232.284.339.083.089.171.169.258.252.1.1.2.193.311.282.091.074.185.143.28.212.114.083.229.164.348.238a6.182 6.182 0 00.673.361c.106.049.211.1.319.139.125.05.252.091.38.132s.229.075.347.1.245.052.368.075.251.052.379.067c.11.014.221.015.332.023.133.009.265.026.4.026a6 6 0 00.844-.066c.051-.007.1-.019.152-.028a5.854 5.854 0 00.668-.153l.213-.066a6.265 6.265 0 00.621-.247c.06-.028.122-.052.182-.083.04-.02.082-.034.122-.055a5.931 5.931 0 00.624-.386l.014-.008a66.18 66.18 0 0110.289-5.894 6 6 0 00-5.025-10.9q-3.187 1.47-6.2 3.192c-9.163-21.641-6.978-45.294 6.319-65.809a6 6 0 00-10.071-6.526zM247.105 124.391a5.976 5.976 0 003.371-1.04 117.226 117.226 0 0118.056-10.044 130.506 130.506 0 0123.625-7.907 6 6 0 10-2.72-11.688 142.375 142.375 0 00-25.8 8.641 129.181 129.181 0 00-19.91 11.078 6 6 0 003.381 10.96zM376.852 111.813a113.419 113.419 0 0129.748 17.736 6 6 0 007.693-9.21 125.391 125.391 0 00-32.886-19.628 6 6 0 00-4.556 11.1zM34.867 203.251a5.99 5.99 0 007.336-4.265 73.313 73.313 0 017.181-17.456 81.628 81.628 0 016.47-9.669 94.708 94.708 0 0116.356-16.3 6 6 0 10-7.412-9.438A106.729 106.729 0 0046.375 164.5a93.679 93.679 0 00-7.423 11.1 85.34 85.34 0 00-8.35 20.318 6 6 0 004.265 7.333zM44.209 254.772A6 6 0 0047 246.76a72.844 72.844 0 01-4.25-10.964 6 6 0 00-11.506 3.409A84.757 84.757 0 0036.2 251.98a5.993 5.993 0 008.013 2.792zM101.207 308.758a153.561 153.561 0 00112.481 0c.04-.016.076-.037.116-.054a5.307 5.307 0 00.578-.286c.086-.049.185-.105.275-.163s.193-.128.287-.2c.073-.053.147-.1.218-.16.117-.093.229-.192.338-.293.044-.041.09-.078.134-.12.157-.154.267-.483.406-.483H216c0-.151.28-.309.389-.472.053-.079.118-.162.168-.244s.113-.165.159-.251c.058-.108.113-.22.164-.331.03-.064.065-.126.092-.191.048-.115.09-.231.13-.348.023-.067.05-.133.071-.2.033-.107.058-.215.085-.323.021-.083.044-.166.061-.25s.031-.181.044-.272.034-.209.045-.314c.008-.072.009-.143.014-.214.009-.125.016-.25.017-.376v-.168c0-.138-.008-.276-.021-.414-.006-.055-.016-.108-.022-.162a6.429 6.429 0 00-.06-.41c-.015-.075-.036-.149-.054-.224-.026-.112-.049-.225-.082-.336a5.766 5.766 0 00-.159-.458c-.012-.031-.019-.062-.032-.093a5.976 5.976 0 00-.256-.551l-.038-.064c-.081-.15-.167-.3-.262-.443-.077-.117-.162-.227-.247-.337-.034-.044-.064-.091-.1-.135a6 6 0 00-.856-.86 53.509 53.509 0 01-8.025-8.117 39.307 39.307 0 01.323-50.964 6 6 0 00-9.33-7.546 54.413 54.413 0 00-11.006 22.348c-20.364-6.7-38.039-18.109-50.254-32.577a78.433 78.433 0 01-14.391-24.872 67.679 67.679 0 01-3.51-28.5 6 6 0 10-11.951-1.087 79.6 79.6 0 004.123 33.514 90.421 90.421 0 0016.559 28.682c14.155 16.764 34.71 29.815 58.249 37.07a52.65 52.65 0 0011.778 31.373 64.879 64.879 0 002.507 2.956c-30.425 9.773-65.123 8.707-94.614-3.205a6 6 0 00-4.494 11.127z"/>
  <path d="M405 359.863c0-37.152-26.291-71.233-67.586-87.993a49.332 49.332 0 00.528-6.716 50.908 50.908 0 00-6.713-25.084 142.033 142.033 0 0174.359 4.589 6 6 0 103.927-11.345 154.192 154.192 0 00-85.88-3.829c-9.95-11.092-24.481-19.492-41.74-23.226-.119-.026-.239-.047-.358-.072 9.416-12.273 22.563-22.565 38.522-30.048 19.874-9.319 42.672-13.559 65.944-12.25a6 6 0 00.672-11.981c-25.247-1.417-50.041 3.205-71.711 13.366-20 9.378-36.127 22.843-46.868 39.082a95.866 95.866 0 00-6.1-.2 6 6 0 000 12 82.246 82.246 0 0117.357 1.833c27.466 5.94 46.647 25.336 46.647 47.165 0 16.621-10.874 31.326-27.451 40.19-.027.014-.053.024-.079.038s-.039.026-.06.037a77.792 77.792 0 01-36.41 8.735q-3.9 0-7.734-.357c-.036 0-.071-.005-.106-.009a80.084 80.084 0 01-12.738-2.234 6 6 0 10-3.031 11.61q3.029.79 6.128 1.369c-15.675 27.715-49.442 47.581-88.5 51.423a6 6 0 00.58 11.972 5.932 5.932 0 00.593-.03c44.894-4.416 83.644-28.517 100.111-61.87 1.561.077 3.126.126 4.7.126a90.462 90.462 0 0036.645-7.58c14.367 31.207 4.589 65.947-25.835 89.843l-5.452 4.281c-13.705 10.764-30.8 18.6-49.447 22.649a6 6 0 102.549 11.726c20.407-4.436 39.187-13.06 54.311-24.938l5.451-4.281c18.168-14.269 30.207-32.354 34.816-52.3a79.96 79.96 0 00-5.806-52.666c11.689-7.466 20.475-17.625 25.1-29.307 35.908 15.094 58.67 44.5 58.67 76.279v6.055c0 21.844-10.457 42.731-29.656 58.814a6.026 6.026 0 003.943 10.6 5.721 5.721 0 003.75-1.4C393 415.528 405 391.374 405 365.918zM473.166 283.313a95.505 95.505 0 00-11.183-15.721 6 6 0 00-9.041 7.891 83.39 83.39 0 019.779 13.737 70.363 70.363 0 019.248 30.884 6 6 0 005.985 5.663c.112 0 .227 0 .341-.009a6 6 0 005.654-6.327 82.241 82.241 0 00-10.783-36.118zM475.977 342.292a6 6 0 00-7.616 3.742c-5.27 15.455-16 29.494-31.042 40.6a6 6 0 107.129 9.652c17.012-12.563 29.208-28.6 35.271-46.379a6 6 0 00-3.742-7.615z"/>
  <circle cx="242" cy="212.154" r="8"/>
  <circle cx="223" cy="313.154" r="8"/>
  <circle cx="231" cy="130.154" r="8"/>
  <circle cx="33" cy="217.154" r="8"/>
  <circle cx="87" cy="376.154" r="8"/>
  <circle cx="116" cy="149.154" r="8"/>
  <circle cx="139" cy="436.154" r="8"/>
  <circle cx="262" cy="460.154" r="8"/>
  <path d="M358.042 437.808a9.861 9.861 0 01-6.206-6.21 6 6 0 00-5.691-4.105 6 6 0 00-5.693 4.1 9.865 9.865 0 01-6.206 6.211 6 6 0 000 11.384 9.865 9.865 0 016.206 6.211 6 6 0 0011.385 0 9.861 9.861 0 016.206-6.21 6 6 0 000-11.384zM91.836 124.6a6 6 0 00-5.691-4.105 6 6 0 00-5.693 4.1 9.865 9.865 0 01-6.206 6.211 6 6 0 000 11.384 9.865 9.865 0 016.206 6.211 6 6 0 0011.385 0 9.861 9.861 0 016.206-6.21 6 6 0 000-11.384 9.861 9.861 0 01-6.207-6.207zM252.526 231.006c-10.7 1.955-19.977 7.119-26.117 14.538a6 6 0 009.246 7.65c4.279-5.171 11.214-8.956 19.028-10.383a6 6 0 10-2.157-11.805zM268 294.154a6 6 0 00-6-6c-10.053 0-19.533-3.708-25.357-9.92a19.049 19.049 0 01-5.552-13.08 6 6 0 00-12 0 30.827 30.827 0 008.8 21.289c8.172 8.714 20.6 13.711 34.111 13.711a6 6 0 005.998-6zM281.938 282.674a6 6 0 106.422 10.137c10.517-6.663 16.549-16.743 16.549-27.657 0-14.311-10.461-27.034-26.651-32.414a6 6 0 10-3.783 11.387c11.2 3.722 18.434 11.976 18.434 21.027 0 6.718-3.999 13.103-10.971 17.52zM454.477 438.808a29.624 29.624 0 01-18.641-18.654 6 6 0 00-11.385 0 29.629 29.629 0 01-18.64 18.655 6 6 0 000 11.384 29.629 29.629 0 0118.64 18.655 6 6 0 0011.385 0 29.624 29.624 0 0118.641-18.654 6 6 0 000-11.384zm-24.333 15.145a41.937 41.937 0 00-9.444-9.453 41.937 41.937 0 009.449-9.453 41.892 41.892 0 009.448 9.453 41.892 41.892 0 00-9.453 9.453zM44.811 73.192a29.629 29.629 0 0118.64 18.655 6 6 0 0011.385 0 29.624 29.624 0 0118.641-18.655 6 6 0 000-11.384 29.624 29.624 0 01-18.641-18.654 6 6 0 00-11.385 0 29.629 29.629 0 01-18.64 18.655 6 6 0 000 11.384zm24.333-15.145a41.892 41.892 0 009.448 9.453 41.892 41.892 0 00-9.448 9.453A41.937 41.937 0 0059.7 67.5a41.937 41.937 0 009.444-9.453zM434 272.154a21 21 0 10-21-21 21.024 21.024 0 0021 21zm0-30a9 9 0 11-9 9 9.01 9.01 0 019-9zM67 252.154a28 28 0 1028 28 28.032 28.032 0 00-28-28zm0 44a16 16 0 1116-16 16.018 16.018 0 01-16 16zM303.506 77.976a33.714 33.714 0 00-1.136 2.625 32.917 32.917 0 0039.668 43.49c5.829 4.436 11.876 7.72 17.023 7.72a9.661 9.661 0 005.842-1.832c6.534-4.775 3.28-15.722-1.241-24.984.131-.316.278-.62.4-.942a33.01 33.01 0 00-36.256-44.286c-12.1-10.27-21.087-13.156-26.713-8.57-1.809 1.474-7.314 5.961.272 22.469a87.258 87.258 0 002.141 4.31zm22.248 33.981a20.953 20.953 0 01-13.522-19.945 174.594 174.594 0 007.278 9.576 177.462 177.462 0 0010.238 11.447 20.987 20.987 0 01-3.994-1.078zm30.419 6.989c-.611-.3-1.3-.671-2.046-1.118.456-.373.908-.75 1.345-1.148.276.809.515 1.577.701 2.266zM324.612 73.17a20.983 20.983 0 0119.527 37.058 141.269 141.269 0 01-15.328-16.222 149.052 149.052 0 01-11.251-15.662 20.932 20.932 0 017.052-5.174zm-9.736-8.276a32.846 32.846 0 00-3.2 2.42 34.364 34.364 0 01-1.929-5.478 33.778 33.778 0 015.129 3.058z"/>
</svg>
