<svg xmlns="http://www.w3.org/2000/svg" width="512" height="512" data-name="Layer 1" fill="#F1F1F1">
  <path d="M123.132 373.416a6 6 0 004.244-10.242 161.177 161.177 0 01-23.48-29.789 6 6 0 00-10.238 6.261 173.184 173.184 0 0025.23 32.011 5.984 5.984 0 004.244 1.759zM85.217 190.36a6 6 0 00-7.612 3.75 172.51 172.51 0 00-3.47 99.754 6 6 0 0011.6-3.057 160.54 160.54 0 013.228-92.835 6 6 0 00-3.746-7.612zM35.459 66.715a30.082 30.082 0 0118.928 18.943 6 6 0 0011.385 0A30.081 30.081 0 0184.7 66.715a6 6 0 000-11.383 30.082 30.082 0 01-18.928-18.943 6 6 0 00-11.385 0 30.085 30.085 0 01-18.928 18.943 6 6 0 000 11.383zm24.621-15.4a42.344 42.344 0 009.7 9.705 42.348 42.348 0 00-9.7 9.706 42.392 42.392 0 00-9.7-9.706 42.368 42.368 0 009.7-9.702zM435.75 438.463a30.082 30.082 0 01-18.927-18.942 6 6 0 00-11.385 0 30.079 30.079 0 01-18.928 18.942 6 6 0 000 11.384 30.081 30.081 0 0118.928 18.942 6 6 0 0011.385 0 30.083 30.083 0 0118.927-18.943 6 6 0 000-11.384zm-24.62 15.4a42.363 42.363 0 00-9.7-9.705 42.324 42.324 0 009.7-9.7 42.368 42.368 0 009.7 9.7 42.407 42.407 0 00-9.7 9.702zM358.871 483.631a11.685 11.685 0 1011.68 11.684 11.7 11.7 0 00-11.68-11.684zM120.292 28.369a11.685 11.685 0 10-11.68-11.684 11.7 11.7 0 0011.68 11.684zM470.583 7.182a6 6 0 000 8.485c14.237 14.248 21.612 33.6 21.919 57.309a6.089 6.089 0 006 6.024h.079a6.062 6.062 0 005.922-6.179c-.35-26.949-8.906-49.049-25.431-65.586a6 6 0 00-8.489-.053zM494.451 109.714a6 6 0 00-7.269 4.378 251.04 251.04 0 01-5.075 17.575 6 6 0 1011.4 3.734c2.05-6.264 3.84-12.461 5.318-18.419a6 6 0 00-4.374-7.268z" />
  <path d="M302.817 50.569a208.834 208.834 0 00-209.473 51.706c-56.627 56.669-73.778 138.1-51.48 209.78a6.029 6.029 0 00-1.089 1.4C1.862 382.351-3.057 434.431 26.551 464.06c12.677 12.685 29.581 19.017 50.211 19.016 23.483 0 51.791-8.208 84.155-24.591q8.757-4.431 17.785-9.593a208.564 208.564 0 00261.014-261.243c12.248-21.484 21.408-41.718 27.088-60.022 12.612-40.638 8.6-71.656-11.92-92.192C425.01 5.539 372.453 10.8 302.817 50.569zm-200.984 60.189a196.788 196.788 0 01199.11-48.19 6.042 6.042 0 001.4.443A193.724 193.724 0 01331.981 75.6a6.043 6.043 0 001.04.541 198.165 198.165 0 0179.957 79.069c-10.426 20.048-24.368 42.1-41.476 65.189a45.25 45.25 0 00-8.087-.736 45.989 45.989 0 00-43.028 62.179 854.518 854.518 0 01-23.323 24.3c-50.412 50.449-103.955 91.622-150.82 115.99a196.586 196.586 0 01-44.411-33.394c-76.585-76.638-76.585-201.338 0-277.98zM348.2 70.972c38-17.572 66.534-20.545 79.114-7.957 12.927 12.936 9.38 41.811-7.951 79.222A210.581 210.581 0 00348.2 70.972zm46.939 182.5a33.974 33.974 0 11-31.722-21.8 33.872 33.872 0 0131.72 21.796zM133.277 428.511c-38.043 17.615-66.534 20.6-79.154 7.968-12.589-12.6-9.608-41.185 7.98-79.244a209.421 209.421 0 0071.174 71.276zm22.223 19.268c-23.947 12.121-53.051 23.35-78.689 23.349-15.96 0-30.58-4.353-41.77-15.551C22.105 442.634 17.212 423.9 20.5 399.878c2.868-20.972 11.819-45.507 26.6-73.007q3.517 8.88 7.882 17.479c-10.929 22.015-17.581 41.481-19.757 57.88-2.51 18.926.994 33.3 10.417 42.732 7.425 7.43 18.072 11.118 31.483 11.117 19.437 0 44.673-7.753 74.262-23.092 48.021-24.893 102.774-66.929 154.173-118.364 7.1-7.1 14.1-14.365 20.891-21.657a46.36 46.36 0 0010.749 10.449 866.674 866.674 0 01-21.045 21.822c-52.985 53.015-111.539 97.68-160.655 122.542zm276.61-153.74A196.412 196.412 0 01192.938 440.43c42.525-26.27 88.222-63.2 131.7-106.71a878.707 878.707 0 0023.652-24.627 46.007 46.007 0 0058.05-59.928 45.207 45.207 0 00-2.973-6.257c10.346-13.976 19.665-27.694 27.887-41.011a197.472 197.472 0 01.854 92.142zm23.236-169.968c-9.743 31.392-30.3 68.948-59.6 108.95a46.663 46.663 0 00-12.246-8.681c17.024-23.263 31.022-45.667 41.524-66.343.023-.041.042-.084.064-.126a267.583 267.583 0 0013.992-32.227c11.52-32.851 10.382-57.444-3.28-71.112-9.424-9.432-23.792-12.932-42.709-10.425-16.363 2.173-35.779 8.812-57.737 19.718q-8.544-4.367-17.458-7.914c26.745-14.387 50.688-23.232 71.305-26.325 24.744-3.71 43.985 1.111 57.195 14.331 17.125 17.137 20.135 44.104 8.948 80.154z"/>
</svg>
