<svg id="Layer_1" height="512" viewBox="0 0 512 512" width="512" xmlns="http://www.w3.org/2000/svg" data-name="Layer 1" fill="#F1F1F1"><path d="m456.119 168.335c-47.078-115.38-179.248-170.95-294.631-123.873s-170.952 179.249-123.874 294.631a224.979 224.979 0 0 0 74.729 96.151 35.984 35.984 0 0 0 63.533 32.928 226.01 226.01 0 0 0 280.243-299.837zm-301.164 302.165a24 24 0 1 1 13.154-31.289 23.846 23.846 0 0 1 -13.154 31.289zm289.091-133.885a213.6 213.6 0 0 1 -263.282 120.523 36 36 0 0 0 -62.245-32.257 212.989 212.989 0 0 1 -69.793-90.321c-44.58-109.255 8.04-234.409 117.295-278.987s234.409 8.04 278.987 117.3a212.548 212.548 0 0 1 -.962 163.742z"/><path d="m329.1 115.686a45.984 45.984 0 1 0 -89.122-22.561 159.637 159.637 0 0 0 -53.833 11.764c-82.063 33.483-121.585 127.486-88.1 209.549 25.4 62.248 85.612 100.019 149.03 100.016a159.922 159.922 0 0 0 60.52-11.914c82.062-33.483 121.584-127.487 88.1-209.549a161.051 161.051 0 0 0 -66.595-77.305zm-57.119-43.945a34 34 0 1 1 -18.634 44.325 33.832 33.832 0 0 1 18.634-44.325zm31.077 319.688a148.729 148.729 0 0 1 -193.906-81.529c-30.982-75.931 5.589-162.917 81.525-193.9a147.714 147.714 0 0 1 48.2-10.813 46 46 0 0 0 85.444 21.627 149.048 149.048 0 0 1 38.817 34.218l-34.992 25.405a105.595 105.595 0 1 0 -41.428 164.935c.583-.238 1.159-.487 1.736-.734l17.233 39.682c-.876.374-1.748.749-2.629 1.109zm49.014-111.129a8.981 8.981 0 0 1 -10.41 5.252c-.1-.05-.206-.1-.314-.146a6.044 6.044 0 0 0 -1.133-.333 9 9 0 1 1 11.893-11.662 8.936 8.936 0 0 1 -.036 6.889zm-11.736-24.193a21.166 21.166 0 0 0 -4.493 1.261 20.975 20.975 0 0 0 -4.509 36.341 92.447 92.447 0 0 1 -36.935 40.5l-17.163-39.522a51.091 51.091 0 0 0 16.852-60.243 51.637 51.637 0 0 0 -3.059-6.237l34.477-25.031a94.45 94.45 0 0 1 7.907 15.221 92.475 92.475 0 0 1 6.923 37.714zm-56.478-37.524a51.009 51.009 0 1 0 -17.724 82.348c.208-.085.407-.181.613-.269l16.914 38.948c-.5.212-.98.443-1.481.647a93.452 93.452 0 1 1 36.22-146.747zm-22.258 71.242a39 39 0 1 1 21.376-50.844 39.045 39.045 0 0 1 -21.376 50.844zm54.915 95.315-17.3-39.84a104.344 104.344 0 0 0 43.478-47.527c.361.019.721.054 1.082.054a20.994 20.994 0 0 0 8.509-40.193 104.332 104.332 0 0 0 -7.759-43.766 106.513 106.513 0 0 0 -9.284-17.755l35-25.411a147.836 147.836 0 0 1 14.341 26.822c29.091 71.3-1.382 152.338-68.066 187.616z"/><path d="m343.135 108.669a9.985 9.985 0 0 0 3.874.787 9.319 9.319 0 0 0 3.644-.747 10.019 10.019 0 0 0 5.347-13.035 9.891 9.891 0 1 0 -18.282 7.556 9.991 9.991 0 0 0 5.417 5.439zm5.719-8.443a2 2 0 0 1 -3.695-.019l3.7-1.512a2.014 2.014 0 0 1 -.005 1.531zm-2.6-2.628a2.011 2.011 0 0 1 1.529.008 2.015 2.015 0 0 1 1.076 1.088l-3.7 1.51a2 2 0 0 1 1.097-2.604z"/><path d="m240.417 68.365a7 7 0 1 0 -3.77-3.814 6.982 6.982 0 0 0 3.77 3.814z"/><path d="m375.1 254.311a6.5 6.5 0 1 0 -6.008 8.962 6.424 6.424 0 0 0 2.44-.481 6.509 6.509 0 0 0 3.577-8.46z"/><path d="m449 410.793a6 6 0 0 0 -8.453.739c-2.7 3.224-5.542 6.409-8.435 9.468a6 6 0 0 0 8.719 8.245c3.055-3.23 6.052-6.6 8.909-10a6 6 0 0 0 -.74-8.452z"/><path d="m494.077 308.826a6 6 0 0 0 -7.02 4.765 214.94 214.94 0 0 1 -27.474 71.371 6 6 0 1 0 10.258 6.228 226.91 226.91 0 0 0 29-75.343 6 6 0 0 0 -4.764-7.021z"/><path d="m99.263 53.765a5.979 5.979 0 0 0 3.2-.929c3.89-2.458 7.913-4.82 11.96-7.022a6 6 0 1 0 -5.736-10.54c-4.274 2.326-8.525 4.821-12.634 7.417a6 6 0 0 0 3.211 11.074z"/><path d="m24.449 140.287a212.818 212.818 0 0 1 53.659-69.515 6 6 0 1 0 -7.787-9.13 224.732 224.732 0 0 0 -56.669 73.409 6 6 0 1 0 10.8 5.236z"/><path d="m274.75 127.189a26 26 0 1 0 -14-14.145 25.933 25.933 0 0 0 14 14.145zm4.787-36.93a14 14 0 1 1 -7.673 18.252 13.937 13.937 0 0 1 7.673-18.252z"/></svg>